<?xml version="1.0" encoding="UTF-8"?>
<!DOCTYPE svg PUBLIC "-//W3C//DTD SVG 1.1//EN" "http://www.w3.org/Graphics/SVG/1.1/DTD/svg11.dtd">
<svg version="1.1" xmlns="http://www.w3.org/2000/svg" xmlns:xlink="http://www.w3.org/1999/xlink" x="0px" y="0px" width="128" height="128" viewBox="0, 0, 128, 128">
  <g id="Background">
    <rect x="0" y="0" width="128" height="128" fill="#000000" fill-opacity="0"/>
  </g>
  <g id="Background"/>
  <g id="Background">
    <path d="M18.093,6 L109.907,6 C116.561,6 122,11.439 122,18.093 L122,109.907 C122,116.561 116.561,122 109.907,122 L18.093,122 C11.439,122 6,116.561 6,109.907 L6,18.093 C6,11.439 11.439,6 18.093,6" fill="#727272"/>
    <path d="M38.114,19.258 C50.655,16.738 62.863,24.861 65.374,37.407 C66.942,45.193 61.598,74.071 60.401,83.419 C61.287,87.287 59.89,91.088 56.93,93.238 L62.703,122 L54.78,122 L49.308,94.745 C45.92,93.933 43.138,91.225 42.408,87.575 C37.691,79.318 21.546,54.359 19.975,46.518 C17.453,33.977 25.573,21.774 38.114,19.258" fill="#EBEDED"/>
    <path d="M76.459,110.3 C68.485,107.669 64.151,99.079 66.781,91.1 C68.411,86.15 80.825,71.395 84.542,66.444 C85.291,63.95 87.324,62.237 89.702,61.968 L101.444,26.35 C99.686,25.077 98.777,23.263 99.298,21.683 C100.01,19.509 103.171,18.6 106.345,19.646 C109.519,20.692 111.515,23.305 110.798,25.473 C110.276,27.059 108.459,27.972 106.29,27.95 L94.543,63.581 C96.216,65.147 96.923,67.59 96.161,69.91 C96.174,76.153 97.302,95.641 95.658,100.622 C93.027,108.597 84.437,112.931 76.459,110.3" fill="#EBEDED"/>
    <path d="M42.919,25.145 C52.245,25.145 59.808,32.707 59.808,42.034 C59.808,51.359 52.245,58.922 42.919,58.922 C33.593,58.922 26.031,51.359 26.031,42.034 C26.031,32.707 33.593,25.145 42.919,25.145" fill="#727272"/>
    <path d="M81.112,86.127 C86.51,86.127 90.889,90.508 90.889,95.905 C90.889,101.304 86.51,105.683 81.112,105.683 C75.714,105.683 71.334,101.304 71.334,95.905 C71.334,90.508 75.714,86.127 81.112,86.127" fill="#727272"/>
    <path d="M40.919,47.446 C40.987,47.934 41.088,48.322 41.22,48.611 C41.353,48.897 41.499,49.117 41.654,49.258 C41.809,49.405 41.973,49.495 42.152,49.542 C42.331,49.587 42.498,49.61 42.654,49.61 C43.028,49.61 43.334,49.514 43.568,49.328 C43.8,49.136 43.979,48.885 44.101,48.559 C44.225,48.24 44.307,47.879 44.349,47.478 C44.394,47.075 44.417,46.677 44.417,46.276 C44.417,45.367 44.293,44.663 44.051,44.162 C43.805,43.665 43.339,43.413 42.654,43.413 C42.453,43.413 42.197,43.503 41.887,43.682 C41.577,43.856 41.275,44.235 40.987,44.815 L35.023,44.815 L35.023,31.457 L50.281,31.457 L50.281,36.289 L41.32,36.289 L41.32,38.751 C41.741,38.594 42.184,38.472 42.654,38.385 C43.12,38.298 43.549,38.253 43.951,38.253 C45.348,38.253 46.5,38.44 47.399,38.818 C48.298,39.192 49.017,39.717 49.545,40.384 C50.08,41.046 50.451,41.842 50.665,42.764 C50.874,43.687 51.003,44.678 51.043,45.746 C51.043,47.145 50.884,48.4 50.563,49.51 C50.239,50.62 49.746,51.569 49.079,52.355 C48.412,53.144 47.559,53.752 46.518,54.172 C45.472,54.593 44.23,54.802 42.786,54.802 C41.942,54.802 41.074,54.715 40.188,54.538 C39.297,54.359 38.47,54.045 37.708,53.587 C36.941,53.136 36.274,52.505 35.707,51.706 C35.142,50.906 34.758,49.888 34.557,48.641 z" fill="#EBECEC"/>
    <path d="M82.323,98.431 C82.323,97.978 82.204,97.64 81.97,97.408 C81.743,97.174 81.46,97.06 81.121,97.06 C80.788,97.06 80.504,97.184 80.272,97.426 C80.043,97.672 79.924,98.006 79.924,98.431 C79.924,98.905 80.034,99.266 80.253,99.504 C80.474,99.741 80.76,99.86 81.121,99.86 C81.497,99.86 81.788,99.723 82.003,99.454 C82.214,99.183 82.323,98.842 82.323,98.431 z M82.09,93.197 C82.09,92.813 82.003,92.507 81.838,92.293 C81.669,92.074 81.432,91.964 81.121,91.964 C80.491,91.964 80.176,92.375 80.176,93.197 C80.176,93.607 80.272,93.913 80.454,94.105 C80.641,94.297 80.865,94.394 81.121,94.394 C81.382,94.394 81.606,94.289 81.798,94.078 C81.993,93.864 82.09,93.572 82.09,93.197 z M81.121,89.124 C81.907,89.124 82.597,89.224 83.19,89.425 C83.78,89.621 84.273,89.895 84.666,90.242 C85.059,90.59 85.35,90.996 85.547,91.461 C85.739,91.922 85.834,92.412 85.834,92.927 C85.834,93.403 85.694,93.905 85.41,94.426 C85.126,94.946 84.656,95.347 83.999,95.631 C84.36,95.745 84.674,95.919 84.935,96.143 C85.199,96.366 85.415,96.617 85.584,96.888 C85.752,97.157 85.871,97.443 85.948,97.745 C86.025,98.048 86.067,98.334 86.067,98.603 C86.067,99.22 85.948,99.788 85.711,100.303 C85.47,100.819 85.136,101.257 84.706,101.618 C84.273,101.979 83.757,102.257 83.158,102.459 C82.56,102.655 81.893,102.755 81.163,102.755 C80.454,102.755 79.792,102.663 79.18,102.477 C78.572,102.29 78.044,102.021 77.601,101.665 C77.158,101.312 76.805,100.883 76.554,100.38 C76.304,99.878 76.18,99.312 76.18,98.682 C76.18,98.436 76.207,98.175 76.267,97.891 C76.327,97.608 76.426,97.331 76.578,97.06 C76.723,96.791 76.919,96.54 77.166,96.308 C77.409,96.074 77.719,95.877 78.094,95.708 L78.094,95.691 C77.783,95.571 77.522,95.407 77.308,95.198 C77.098,94.983 76.924,94.75 76.797,94.493 C76.668,94.234 76.578,93.968 76.518,93.69 C76.459,93.411 76.431,93.161 76.431,92.927 C76.431,92.402 76.551,91.904 76.787,91.444 C77.024,90.978 77.353,90.575 77.773,90.232 C78.189,89.895 78.687,89.621 79.259,89.425 C79.834,89.224 80.454,89.124 81.121,89.124" fill="#EBECEC"/>
  </g>
  <defs/>
</svg>
